<svg width="356" height="53" viewBox="0 0 356 53" fill="none" xmlns="http://www.w3.org/2000/svg">
<path d="M39.024 34.944C38.448 29.976 36.072 26.736 32.616 24.648C34.776 21.984 36.216 18.24 35.424 12.696C33.48 -1.632 13.68 0.815998 9.864 1.032C6.048 1.248 5.976 3.84 5.832 6.144C5.256 16.944 5.472 47.616 5.472 47.616C5.472 51.432 11.016 51 14.328 51C28.368 50.928 40.392 46.464 39.024 34.944ZM17.208 11.832C17.208 11.832 23.76 11.112 24.336 14.136C25.056 18.024 19.728 18.6 17.208 18.456V11.832ZM17.28 39.048C17.352 34.8 17.136 31.2 17.28 31.2C22.536 30.336 25.56 32.496 25.632 34.296C25.776 37.752 21.456 39.048 17.28 39.048ZM215.087 40.128C213.287 37.896 212.567 36.96 212.567 36.96C212.567 36.96 211.127 34.296 208.031 36.6C205.583 38.4 203.927 39.12 201.623 38.256C199.535 37.536 196.511 34.296 196.871 27.456C197.231 20.616 198.167 13.128 203.639 13.128C206.375 13.128 208.031 14.208 208.751 14.856C209.471 15.432 210.479 15.432 212.639 13.128L216.095 9.096C216.095 9.096 217.031 7.656 214.727 5.208C212.423 2.832 206.879 -1.128 199.967 0.383999C192.983 1.824 189.095 6.216 186.287 15.792C183.479 25.44 183.983 41.352 193.919 49.344C200.399 53.52 207.671 52.368 211.919 49.848C216.167 47.328 216.815 45.384 216.815 45.384C216.815 45.384 218.039 43.8 215.087 40.128Z" fill="#032788"/>
<path d="M74.7808 44.088C74.2048 43.584 71.3248 39.984 69.0928 37.032C67.7968 35.232 65.7808 32.208 64.4128 30.12C64.7728 29.904 65.1328 29.688 65.4928 29.472C69.3088 27.096 74.7088 21.48 72.4048 12.552C68.5168 -3 49.2208 0.671996 45.4048 0.887997C41.5888 1.032 41.5168 3.696 41.3728 6C40.7968 16.8 41.0128 47.688 41.0128 47.688C41.0128 51.432 47.4208 51.216 50.7328 51C53.9727 50.856 53.3968 47.616 53.3968 46.608C53.4688 43.872 53.6128 38.4 53.6848 35.16C56.9248 41.352 62.3248 47.688 64.4128 50.208C66.9328 53.088 69.1648 51.864 69.1648 51.864C69.1648 51.864 72.2608 49.416 74.1328 47.976C76.0768 46.464 75.6448 44.88 74.7808 44.088ZM53.6128 21.12L53.6848 11.976C53.6848 11.976 61.3888 10.464 61.8208 15.648C62.2528 20.184 56.1328 21.264 53.6128 21.12ZM255.396 47.472C255.396 47.472 255.324 6.504 255.324 3.552C255.324 0.671996 252.732 0.887997 252.732 0.887997H245.028C241.86 0.743999 242.58 3.048 242.58 4.056C242.58 7.512 242.58 14.352 242.508 21.48C239.34 21.552 233.94 21.48 231.42 21.48C231.42 12.84 231.42 4.776 231.42 3.552C231.42 0.671996 228.828 0.887997 228.828 0.887997H220.98C217.812 0.743999 218.604 3.048 218.532 4.056C218.172 14.568 218.388 41.496 218.532 46.464C218.676 51.504 221.124 51 221.124 51C221.124 51 225.156 51.072 228.54 51C231.996 50.856 231.492 47.472 231.492 47.472C231.492 47.472 231.492 41.568 231.492 34.296C233.148 34.224 240.492 34.296 242.508 34.296C242.508 39.984 242.508 44.736 242.58 46.464C242.724 51.504 245.1 51 245.1 51C245.1 51 249.06 51.072 252.444 51C255.828 50.856 255.396 47.472 255.396 47.472Z" fill="#2931FF"/>
<path d="M110.959 46.464C108.583 36.024 102.823 14.712 100.231 7.368C97.7114 0.0959988 95.9834 0.671996 92.1674 0.671996C88.3514 0.671996 85.6874 2.04 84.6794 5.784C83.9594 8.592 76.8314 34.872 73.7354 45.6C72.0794 51.432 78.4154 50.712 82.0874 50.856C85.6874 51.072 86.2634 47.544 86.2634 47.544L87.4154 43.368L96.5594 43.296C96.5594 43.296 96.7754 44.304 97.4954 47.904C98.1434 51.36 101.023 51.072 106.135 51C110.815 50.856 111.319 47.976 110.959 46.464ZM89.5034 32.928L92.0954 20.904L94.4714 32.856L89.5034 32.928ZM293.678 46.464C291.302 36.024 285.542 14.712 282.95 7.368C280.43 0.0959988 278.702 0.671996 274.886 0.671996C271.07 0.671996 268.406 2.04 267.398 5.784C266.678 8.592 259.55 34.872 256.454 45.6C254.798 51.432 261.134 50.712 264.806 50.856C268.406 51.072 268.982 47.544 268.982 47.544L270.134 43.368L279.278 43.296C279.278 43.296 279.494 44.304 280.214 47.904C280.862 51.36 283.742 51.072 288.854 51C293.534 50.856 294.038 47.976 293.678 46.464ZM272.222 32.928L274.814 20.904L277.19 32.856L272.222 32.928Z" fill="#17BDBD"/>
<path d="M120.95 14.712C125.558 12.48 126.206 7.584 124.766 4.848C122.03 0.0959988 117.134 0.455998 115.046 1.32C110.654 3.48 110.582 7.368 111.014 10.248C111.374 13.2 116.342 16.872 120.95 14.712ZM124.982 22.344C124.982 19.464 122.174 19.68 122.174 19.68H114.398C111.014 19.536 111.518 22.488 111.518 23.496C111.734 32.208 111.662 41.496 111.806 46.464C111.878 51.504 114.542 51 114.542 51C114.542 51 118.214 51.072 121.886 51C125.558 50.856 125.054 47.472 125.054 47.472C125.054 47.472 124.982 25.296 124.982 22.344ZM303.669 14.712C308.277 12.48 308.925 7.584 307.485 4.848C304.749 0.0959988 299.853 0.455998 297.765 1.32C293.373 3.48 293.301 7.368 293.733 10.248C294.093 13.2 299.061 16.872 303.669 14.712ZM307.701 22.344C307.701 19.464 304.893 19.68 304.893 19.68H297.117C293.733 19.536 294.237 22.488 294.237 23.496C294.453 32.208 294.381 41.496 294.525 46.464C294.597 51.504 297.261 51 297.261 51C297.261 51 300.933 51.072 304.605 51C308.277 50.856 307.773 47.472 307.773 47.472C307.773 47.472 307.701 25.296 307.701 22.344Z" fill="#FF9595"/>
<path d="M164.646 0.599997C162.918 0.383999 158.742 0.455998 156.15 0.599997C153.63 0.815998 153.846 2.832 153.846 3.84C153.846 10.248 153.918 29.976 153.918 29.976C153.918 29.976 145.998 12.552 143.406 6.576C140.454 -0.120003 139.374 0.599997 137.214 0.599997C134.55 0.599997 133.614 0.311996 131.238 0.599997C128.79 0.887997 128.718 2.832 128.718 2.832L128.574 32.208C128.574 32.208 128.718 41.784 128.79 46.896C128.862 52.296 134.55 50.856 138.294 50.856C142.038 50.928 141.462 46.32 141.462 46.32L141.102 26.376C141.102 26.376 147.87 42.216 151.182 47.328C153.918 51.504 156.222 50.784 158.67 50.784C163.926 50.784 167.022 49.56 167.022 44.304C167.022 34.944 167.022 7.944 167.094 4.416C167.094 0.887997 165.798 0.671996 164.646 0.599997ZM347.364 0.599997C345.636 0.383999 341.46 0.455998 338.868 0.599997C336.348 0.815998 336.564 2.832 336.564 3.84C336.564 10.248 336.636 29.976 336.636 29.976C336.636 29.976 328.716 12.552 326.124 6.576C323.172 -0.120003 322.092 0.599997 319.932 0.599997C317.268 0.599997 316.332 0.311996 313.956 0.599997C311.508 0.887997 311.436 2.832 311.436 2.832L311.292 32.208C311.292 32.208 311.436 41.784 311.508 46.896C311.58 52.296 317.268 50.856 321.012 50.856C324.756 50.928 324.18 46.32 324.18 46.32L323.82 26.376C323.82 26.376 330.588 42.216 333.9 47.328C336.636 51.504 338.94 50.784 341.388 50.784C346.644 50.784 349.74 49.56 349.74 44.304C349.74 34.944 349.74 7.944 349.812 4.416C349.812 0.887997 348.516 0.671996 347.364 0.599997Z" fill="#F04156"/>
</svg>
