<svg width="345" height="53" viewBox="0 0 345 53" fill="none" xmlns="http://www.w3.org/2000/svg">
<path d="M34.024 34.944C33.448 29.976 31.072 26.736 27.616 24.648C29.776 21.984 31.216 18.24 30.424 12.696C28.48 -1.632 8.68 0.815998 4.864 1.032C1.048 1.248 0.976 3.84 0.832 6.144C0.256 16.944 0.472 47.616 0.472 47.616C0.472 51.432 6.016 51 9.328 51C23.368 50.928 35.392 46.464 34.024 34.944ZM12.208 11.832C12.208 11.832 18.76 11.112 19.336 14.136C20.056 18.024 14.728 18.6 12.208 18.456V11.832ZM12.28 39.048C12.352 34.8 12.136 31.2 12.28 31.2C17.536 30.336 20.56 32.496 20.632 34.296C20.776 37.752 16.456 39.048 12.28 39.048ZM210.087 40.128C208.287 37.896 207.567 36.96 207.567 36.96C207.567 36.96 206.127 34.296 203.031 36.6C200.583 38.4 198.927 39.12 196.623 38.256C194.535 37.536 191.511 34.296 191.871 27.456C192.231 20.616 193.167 13.128 198.639 13.128C201.375 13.128 203.031 14.208 203.751 14.856C204.471 15.432 205.479 15.432 207.639 13.128L211.095 9.096C211.095 9.096 212.031 7.656 209.727 5.208C207.423 2.832 201.879 -1.128 194.967 0.383999C187.983 1.824 184.095 6.216 181.287 15.792C178.479 25.44 178.983 41.352 188.919 49.344C195.399 53.52 202.671 52.368 206.919 49.848C211.167 47.328 211.815 45.384 211.815 45.384C211.815 45.384 213.039 43.8 210.087 40.128Z" fill="#032788"/>
<path d="M69.7808 44.088C69.2048 43.584 66.3248 39.984 64.0928 37.032C62.7968 35.232 60.7808 32.208 59.4128 30.12C59.7728 29.904 60.1328 29.688 60.4928 29.472C64.3088 27.096 69.7088 21.48 67.4048 12.552C63.5168 -3 44.2208 0.671996 40.4048 0.887997C36.5888 1.032 36.5168 3.696 36.3728 6C35.7968 16.8 36.0128 47.688 36.0128 47.688C36.0128 51.432 42.4208 51.216 45.7328 51C48.9727 50.856 48.3968 47.616 48.3968 46.608C48.4688 43.872 48.6128 38.4 48.6848 35.16C51.9248 41.352 57.3248 47.688 59.4128 50.208C61.9328 53.088 64.1648 51.864 64.1648 51.864C64.1648 51.864 67.2608 49.416 69.1328 47.976C71.0768 46.464 70.6448 44.88 69.7808 44.088ZM48.6128 21.12L48.6848 11.976C48.6848 11.976 56.3888 10.464 56.8208 15.648C57.2528 20.184 51.1328 21.264 48.6128 21.12ZM250.396 47.472C250.396 47.472 250.324 6.504 250.324 3.552C250.324 0.671996 247.732 0.887997 247.732 0.887997H240.028C236.86 0.743999 237.58 3.048 237.58 4.056C237.58 7.512 237.58 14.352 237.508 21.48C234.34 21.552 228.94 21.48 226.42 21.48C226.42 12.84 226.42 4.776 226.42 3.552C226.42 0.671996 223.828 0.887997 223.828 0.887997H215.98C212.812 0.743999 213.604 3.048 213.532 4.056C213.172 14.568 213.388 41.496 213.532 46.464C213.676 51.504 216.124 51 216.124 51C216.124 51 220.156 51.072 223.54 51C226.996 50.856 226.492 47.472 226.492 47.472C226.492 47.472 226.492 41.568 226.492 34.296C228.148 34.224 235.492 34.296 237.508 34.296C237.508 39.984 237.508 44.736 237.58 46.464C237.724 51.504 240.1 51 240.1 51C240.1 51 244.06 51.072 247.444 51C250.828 50.856 250.396 47.472 250.396 47.472Z" fill="#2931FF"/>
<path d="M105.959 46.464C103.583 36.024 97.8234 14.712 95.2314 7.368C92.7114 0.0959988 90.9834 0.671996 87.1674 0.671996C83.3514 0.671996 80.6874 2.04 79.6794 5.784C78.9594 8.592 71.8314 34.872 68.7354 45.6C67.0794 51.432 73.4154 50.712 77.0874 50.856C80.6874 51.072 81.2634 47.544 81.2634 47.544L82.4154 43.368L91.5594 43.296C91.5594 43.296 91.7754 44.304 92.4954 47.904C93.1434 51.36 96.0234 51.072 101.135 51C105.815 50.856 106.319 47.976 105.959 46.464ZM84.5034 32.928L87.0954 20.904L89.4714 32.856L84.5034 32.928ZM288.678 46.464C286.302 36.024 280.542 14.712 277.95 7.368C275.43 0.0959988 273.702 0.671996 269.886 0.671996C266.07 0.671996 263.406 2.04 262.398 5.784C261.678 8.592 254.55 34.872 251.454 45.6C249.798 51.432 256.134 50.712 259.806 50.856C263.406 51.072 263.982 47.544 263.982 47.544L265.134 43.368L274.278 43.296C274.278 43.296 274.494 44.304 275.214 47.904C275.862 51.36 278.742 51.072 283.854 51C288.534 50.856 289.038 47.976 288.678 46.464ZM267.222 32.928L269.814 20.904L272.19 32.856L267.222 32.928Z" fill="#17BDBD"/>
<path d="M115.95 14.712C120.558 12.48 121.206 7.584 119.766 4.848C117.03 0.0959988 112.134 0.455998 110.046 1.32C105.654 3.48 105.582 7.368 106.014 10.248C106.374 13.2 111.342 16.872 115.95 14.712ZM119.982 22.344C119.982 19.464 117.174 19.68 117.174 19.68H109.398C106.014 19.536 106.518 22.488 106.518 23.496C106.734 32.208 106.662 41.496 106.806 46.464C106.878 51.504 109.542 51 109.542 51C109.542 51 113.214 51.072 116.886 51C120.558 50.856 120.054 47.472 120.054 47.472C120.054 47.472 119.982 25.296 119.982 22.344ZM298.669 14.712C303.277 12.48 303.925 7.584 302.485 4.848C299.749 0.0959988 294.853 0.455998 292.765 1.32C288.373 3.48 288.301 7.368 288.733 10.248C289.093 13.2 294.061 16.872 298.669 14.712ZM302.701 22.344C302.701 19.464 299.893 19.68 299.893 19.68H292.117C288.733 19.536 289.237 22.488 289.237 23.496C289.453 32.208 289.381 41.496 289.525 46.464C289.597 51.504 292.261 51 292.261 51C292.261 51 295.933 51.072 299.605 51C303.277 50.856 302.773 47.472 302.773 47.472C302.773 47.472 302.701 25.296 302.701 22.344Z" fill="#FF9595"/>
<path d="M159.646 0.599997C157.918 0.383999 153.742 0.455998 151.15 0.599997C148.63 0.815998 148.846 2.832 148.846 3.84C148.846 10.248 148.918 29.976 148.918 29.976C148.918 29.976 140.998 12.552 138.406 6.576C135.454 -0.120003 134.374 0.599997 132.214 0.599997C129.55 0.599997 128.614 0.311996 126.238 0.599997C123.79 0.887997 123.718 2.832 123.718 2.832L123.574 32.208C123.574 32.208 123.718 41.784 123.79 46.896C123.862 52.296 129.55 50.856 133.294 50.856C137.038 50.928 136.462 46.32 136.462 46.32L136.102 26.376C136.102 26.376 142.87 42.216 146.182 47.328C148.918 51.504 151.222 50.784 153.67 50.784C158.926 50.784 162.022 49.56 162.022 44.304C162.022 34.944 162.022 7.944 162.094 4.416C162.094 0.887997 160.798 0.671996 159.646 0.599997ZM342.364 0.599997C340.636 0.383999 336.46 0.455998 333.868 0.599997C331.348 0.815998 331.564 2.832 331.564 3.84C331.564 10.248 331.636 29.976 331.636 29.976C331.636 29.976 323.716 12.552 321.124 6.576C318.172 -0.120003 317.092 0.599997 314.932 0.599997C312.268 0.599997 311.332 0.311996 308.956 0.599997C306.508 0.887997 306.436 2.832 306.436 2.832L306.292 32.208C306.292 32.208 306.436 41.784 306.508 46.896C306.58 52.296 312.268 50.856 316.012 50.856C319.756 50.928 319.18 46.32 319.18 46.32L318.82 26.376C318.82 26.376 325.588 42.216 328.9 47.328C331.636 51.504 333.94 50.784 336.388 50.784C341.644 50.784 344.74 49.56 344.74 44.304C344.74 34.944 344.74 7.944 344.812 4.416C344.812 0.887997 343.516 0.671996 342.364 0.599997Z" fill="#F04156"/>
</svg>
